<?xml version="1.0" encoding="UTF-8"?>
<svg id="Layer_1" data-name="Layer 1" xmlns="http://www.w3.org/2000/svg" viewBox="0 0 1024 708.64">
  <defs>
    <style>
      .cls-1 {
        fill: #fff;
      }
    </style>
  </defs>
  <path class="cls-1" d="M642.53,205.69c18.79-39,33.59-64.15,65.46-94.21C781.63,42.04,909.43-2.73,1011.46.28c4.01-.58,8.48-.1,12.54,0-.38,14.88-2.09,29.81-3.44,44.64-4.7,51.64-12.73,107.16-29.82,156.5-31.87,91.98-92.6,168.64-177.05,218.02-15.36,8.98-31.9,15.59-47.87,23.36v177.61c0,29.33.9,58.94,0,88.23h-141.57c.36-20.11.01-40.24.01-60.36v-117.95c0-19.08-4.19-71.76,3.99-86.8,7.37-13.56,16.49-26.34,24.57-39.49l94.82-155.44c22.21-37.42,50.91-88.79,85.62-114.59,5.48-4.07,11.91-6.45,16.97-11.17-16.2,3.76-33.02,13.46-47.74,20.96-108.51,63.36-140.19,153.76-208.74,250.22-4.27-6.13-7.87-12.94-11.59-19.41L406.33,63.92c-4.27-7.34-8.9-14.59-12.63-22.22l103.46-.04c42.96.14,53.07-8.85,74.88,32.48l18.53,35.81c15.94,30.7,34.69,65.87,51.96,95.73h0Z"/>
  <path class="cls-1" d="M0,570.89c24.36.38,48.73.02,73.09,0h206.45c15.41,0,31.83.98,47.01-1.78,46.62-8.47,64.28-72.43,30.26-106.21-20.51-20.37-46.96-17.96-73.58-17.89l-54.2-.11c-68.06-.01-112.52-6.04-164.73-58.03-82.85-82.5-81.57-207.92.92-290.04,52.74-52.51,99-55.14,166.47-55.15l80.97.02c5.87-.52,11.84-.15,17.73,0,8.49,16.2,18.68,31.82,27.92,47.61l52.2,89.28-183.45.25c-12.13-.07-24.42-.82-36.52.31-67.12,6.25-76.53,103.8-9.69,123.47,13.85,4.08,29.63,2.35,43.95,2.29l54.41-.03c47.61.03,85.94,2.93,127.72,26.95,83.56,48.05,127.06,154.69,90.61,245.97-34.94,87.5-115.76,130.85-206.36,130.84h-87.85c-31.86.01-57.48-2.19-87.61-14.21-53.9-21.94-95.82-69.43-115.72-123.55h0Z"/>
</svg>