<?xml version="1.0" encoding="UTF-8"?>
<svg id="Layer_1" data-name="Layer 1" xmlns="http://www.w3.org/2000/svg" viewBox="0 0 2056.79 920.19">
  <defs>
    <style>
      .cls-1 {
        fill: #fff;
      }
    </style>
  </defs>
  <path class="cls-1" d="M1160.41,205.69c18.79-39,33.59-64.15,65.46-94.21C1299.51,42.04,1427.3-2.73,1529.34.28c4.01-.58,8.48-.1,12.54,0-.38,14.88-2.09,29.81-3.44,44.64-4.7,51.64-12.73,107.16-29.82,156.5-31.87,91.98-92.6,168.64-177.05,218.02-15.36,8.98-31.9,15.59-47.87,23.36v177.61c0,29.33.9,58.94,0,88.23h-141.57c.36-20.11.01-40.24.01-60.36v-117.95c0-19.08-4.19-71.76,3.99-86.8,7.37-13.56,16.49-26.34,24.57-39.49l94.82-155.44c22.21-37.42,50.91-88.79,85.62-114.59,5.48-4.07,11.91-6.45,16.97-11.17-16.2,3.76-33.02,13.46-47.74,20.96-108.51,63.36-140.19,153.76-208.74,250.22-4.27-6.13-7.87-12.94-11.59-19.41L924.21,63.92c-4.27-7.34-8.9-14.59-12.63-22.22l103.46-.04c42.96.14,53.07-8.85,74.88,32.48l18.53,35.81c15.94,30.7,34.69,65.87,51.96,95.73Z"/>
  <path class="cls-1" d="M517.88,570.89c24.36.38,48.73.02,73.09,0h206.45c15.41,0,31.83.98,47.01-1.78,46.62-8.47,64.28-72.43,30.26-106.21-20.51-20.37-46.96-17.96-73.58-17.89l-54.2-.11c-68.06-.01-112.52-6.04-164.73-58.03-82.85-82.5-81.57-207.92.92-290.04,52.74-52.51,99-55.14,166.47-55.15l80.97.02c5.87-.52,11.84-.15,17.73,0,8.49,16.2,18.68,31.82,27.92,47.61l52.2,89.28-183.45.25c-12.13-.07-24.42-.82-36.52.31-67.12,6.25-76.53,103.8-9.69,123.47,13.85,4.08,29.63,2.35,43.95,2.29l54.41-.03c47.61.03,85.94,2.93,127.72,26.95,83.56,48.05,127.06,154.69,90.61,245.97-34.94,87.5-115.76,130.85-206.36,130.84h-87.85c-31.86.01-57.48-2.19-87.61-14.21-53.9-21.94-95.82-69.43-115.72-123.55Z"/>
  <g>
    <path class="cls-1" d="M4.2,861.39h109.5c9.3,0,13.8-4.2,13.8-11.1s-4.5-10.8-14.1-10.8h-49.8c-35.1,0-63.6-24-63.6-66.3,0-48.6,33.3-66.3,66.9-66.3h124.2v55.5h-107.1c-8.1,0-13.8,3-13.8,10.5s5.7,11.1,13.8,11.1h46.8c40.2,0,66.9,23.7,66.9,66,0,39.9-30,66.9-69,66.9H3.3l.9-55.5Z"/>
    <path class="cls-1" d="M411.3,792.09c0,33.9-26.7,58.2-57.3,58.2h-72.3v66.6h-61.5v-181.5h130.5c29.1,0,60.6,17.4,60.6,56.7ZM351.6,792.69c0-6-4.2-9-9-9h-60.9v18.3h60.9c4.8,0,9-4.2,9-9.3Z"/>
    <path class="cls-1" d="M579.9,847.59l39.9,69.3h-64.8l-36.3-66.9h-27.9v66.9h-61.5v-181.5h130.5c29.1,0,60.6,17.4,60.6,56.7,0,27.6-17.7,48.6-40.5,55.5ZM490.8,801.99h60.9c4.8,0,9-4.2,9-9.3,0-6-4.2-9-9-9h-60.9v18.3Z"/>
    <path class="cls-1" d="M641.39,735.38h61.5v181.5h-61.5v-181.5Z"/>
    <path class="cls-1" d="M729.89,735.38h61.5l81.3,96h2.1v-96h61.5v181.5h-61.5l-81-93.6h-2.4v93.6h-61.5v-181.5Z"/>
    <path class="cls-1" d="M960.29,826.29c0-51.6,41.1-93.9,94.2-93.9,47.7,0,85.8,30.6,92.4,75.9l-60.3-.3c-6.6-13.8-18.9-20.4-32.1-20.4-21,0-36.9,14.7-36.9,36.9,0,20.7,14.7,38.1,37.8,38.1,12.9,0,24-7.2,26.4-17.4l-28.8-.3v-21.3l95.1.3-.6,9.9c-3.6,48.3-43.2,86.4-93,86.4-53.1,0-94.2-42.6-94.2-93.9Z"/>
    <path class="cls-1" d="M1223.99,850.29l-87.9-114.9h75l42,57.3h2.1l40.8-57.3h74.7l-85.2,114.9v66.6h-61.5v-66.6Z"/>
    <path class="cls-1" d="M1382.69,735.38h61.5v181.5h-61.5v-181.5Z"/>
    <path class="cls-1" d="M1534.19,783.99v17.7h111v48.6h-111v18h111v48.6h-172.5v-181.5h172.5v48.6h-111Z"/>
    <path class="cls-1" d="M1832.69,868.29v48.6h-160.5v-181.5h61.5v132.9h99Z"/>
    <path class="cls-1" d="M2056.79,824.49c0,53.1-43.5,92.4-87.6,92.4h-118.5v-181.5h120.9c42.6,0,85.2,37.5,85.2,89.1ZM1994.99,824.19c0-21.6-17.7-40.2-40.2-40.2h-42.6v84.3h43.8c20.1,0,39-19.8,39-44.1Z"/>
  </g>
</svg>