<?xml version="1.0" encoding="UTF-8"?>
<svg xmlns="http://www.w3.org/2000/svg" viewBox="0 0 160 160">
  <defs>
    <style>
      .cls-1 {
        fill: #fff;
      }
    </style>
  </defs>
  <g id="Layer_2" data-name="Layer 2">
    <rect class="cls-1" x="-56.42" y="-47.33" width="276.22" height="256.04"/>
  </g>
  <g id="Layer_1" data-name="Layer 1">
    <g>
      <path d="M98.36,59.1c2.64-5.48,4.72-9.02,9.21-13.25,10.36-9.77,28.33-16.06,42.68-15.64.56-.08,1.19-.01,1.76,0-.05,2.09-.29,4.19-.48,6.28-.66,7.26-1.79,15.07-4.19,22.01-4.48,12.93-13.02,23.71-24.9,30.66-2.16,1.26-4.49,2.19-6.73,3.28v24.98c0,4.12.13,8.29,0,12.41h-19.91c.05-2.83,0-5.66,0-8.49v-16.59c0-2.68-.59-10.09.56-12.21,1.04-1.91,2.32-3.7,3.46-5.55l13.33-21.86c3.12-5.26,7.16-12.49,12.04-16.11.77-.57,1.67-.91,2.39-1.57-2.28.53-4.64,1.89-6.71,2.95-15.26,8.91-19.71,21.62-29.35,35.19-.6-.86-1.11-1.82-1.63-2.73l-24.73-43.69c-.6-1.03-1.25-2.05-1.78-3.12h14.55c6.04.01,7.46-1.25,10.53,4.56l2.61,5.04c2.24,4.32,4.88,9.26,7.31,13.46h0Z"/>
      <path d="M8,110.46c3.43.05,6.85,0,10.28,0h29.03c2.17,0,4.48.14,6.61-.25,6.56-1.19,9.04-10.19,4.26-14.94-2.88-2.86-6.6-2.53-10.35-2.52l-7.62-.02c-9.57,0-15.82-.85-23.17-8.16-11.65-11.6-11.47-29.24.13-40.79,7.42-7.38,13.92-7.75,23.41-7.76h11.39c.83-.07,1.66-.02,2.49,0,1.19,2.28,2.63,4.47,3.93,6.7l7.34,12.55-25.8.04c-1.71,0-3.43-.12-5.14.04-9.44.88-10.76,14.6-1.36,17.36,1.95.57,4.17.33,6.18.32h7.65c6.7,0,12.09.41,17.96,3.79,11.75,6.76,17.87,21.75,12.74,34.59-4.91,12.3-16.28,18.4-29.02,18.4h-12.35c-4.48,0-8.08-.31-12.32-2-7.58-3.09-13.47-9.76-16.27-17.37h0Z"/>
    </g>
  </g>
</svg>